<?xml version="1.0" standalone="no"?><!DOCTYPE svg PUBLIC "-//W3C//DTD SVG 20010904//EN" "http://www.w3.org/TR/2001/REC-SVG-20010904/DTD/svg10.dtd"><svg version="1.0" xmlns="http://www.w3.org/2000/svg" width="1024.000000pt" height="1536.000000pt" viewBox="0 0 1024.000000 1536.000000" preserveAspectRatio="xMidYMid meet"><g transform="translate(0.000000,1536.000000) scale(0.100000,-0.100000)" fill="currentColor" stroke="none"><path d="M5423 10558 l-23 -32 42 -43 42 -43 -38 -39 c-37 -38 -38 -41 -27 -74 9 -28 9 -40 0 -56 -13 -19 -13 -19 -36 5 -12 13 -25 24 -29 24 -3 0 -27 -18 -53 -40 l-48 -39 -38 39 c-45 46 -59 49 -81 15 -19 -29 -13 -50 25 -91 l30 -32 -36 -41 c-31 -37 -34 -45 -25 -67 15 -32 40 -30 82 6 19 16 40 29 45 29 6 0 27 -16 49 -36 33 -31 36 -37 22 -45 -9 -5 -28 -20 -44 -33 l-27 -23 -42 34 -43 35 -25 -25 c-28 -28 -25 -47 18 -94 l21 -22 -22 -28 c-37 -45 -47 -72 -35 -90 17 -29 40 -25 83 14 34 31 43 35 53 23 53 -62 94 -71 118 -28 8 16 4 27 -20 58 -17 22 -31 45 -31 52 0 7 16 30 36 50 l37 37 -28 28 -28 28 22 14 c29 20 27 41 -9 82 -16 19 -29 40 -30 45 0 12 71 85 83 85 4 0 7 -5 7 -12 0 -7 14 -27 32 -45 l32 -33 -30 -37 c-44 -55 -47 -62 -34 -78 19 -23 52 -18 93 16 l37 30 44 -36 44 -36 28 25 28 24 -37 47 -37 48 30 37 c45 57 38 102 -15 96 -18 -2 -39 -15 -56 -36 l-28 -33 -34 37 c-19 20 -44 36 -56 36 -11 0 -21 5 -21 11 0 5 5 7 10 4 6 -4 30 9 53 28 l43 35 37 -34 c43 -40 56 -42 85 -11 l22 24 -36 47 -36 47 37 45 37 45 24 -33 c14 -18 32 -39 41 -46 15 -11 13 -16 -20 -50 -40 -41 -44 -57 -23 -84 20 -26 49 -22 81 12 16 17 34 30 39 30 6 -1 27 -14 46 -30 42 -36 50 -37 79 -6 l23 25 -37 45 -37 45 37 46 c37 45 38 46 19 68 -31 36 -34 36 -77 -4 -23 -21 -44 -39 -47 -39 -3 0 -24 18 -48 40 -44 40 -67 43 -77 9 -8 -24 -17 -24 -40 1 -26 29 -44 25 -87 -17 l-37 -36 -45 41 c-25 23 -49 42 -53 42 -5 0 -18 -15 -30 -32z"/><path d="M4851 10284 c-27 -35 -27 -40 9 -81 38 -42 37 -54 -1 -98 -62 -70 -7 -118 64 -55 19 17 39 30 44 30 5 0 22 -13 38 -30 35 -36 79 -40 95 -9 10 17 6 28 -24 66 -20 26 -36 49 -36 53 0 3 15 21 34 39 35 34 39 58 15 87 -17 21 -30 17 -72 -21 -21 -19 -41 -35 -44 -35 -3 0 -27 18 -53 40 l-48 40 -21 -26z"/><path d="M6006 10278 c-20 -28 -20 -42 -1 -58 9 -7 25 -26 36 -41 l19 -28 -28 -33 c-40 -46 -46 -67 -26 -89 19 -22 41 -14 89 32 l31 29 33 -35 c34 -37 50 -42 82 -25 28 16 23 40 -18 82 l-36 37 36 41 c21 22 37 45 37 52 0 14 44 -26 72 -65 l20 -28 -36 -39 c-20 -22 -36 -44 -36 -48 0 -5 11 -19 24 -31 l23 -22 48 36 47 37 37 -36 c43 -42 50 -43 79 -13 22 24 28 43 15 49 -5 2 -21 18 -37 35 l-29 32 36 44 36 44 -19 31 c-11 18 -22 32 -25 32 -3 0 -26 -19 -50 -41 l-45 -42 -19 25 c-11 13 -35 33 -55 43 l-36 20 -16 -23 -16 -23 -22 20 c-24 22 -21 23 -99 -32 -26 -19 -26 -19 -70 17 -51 42 -61 44 -81 14z"/><path d="M6584 10275 c-16 -25 -16 -27 19 -77 l36 -52 -35 -38 c-39 -43 -42 -58 -16 -81 25 -23 26 -23 77 24 l44 41 32 -36 c35 -40 67 -46 92 -18 24 26 22 34 -18 72 -19 19 -35 38 -35 44 0 6 16 27 36 47 l36 37 -21 31 c-12 17 -28 31 -35 31 -6 0 -29 -18 -51 -39 l-38 -40 -45 40 c-25 21 -49 39 -53 39 -5 0 -16 -11 -25 -25z"/><path d="M5720 9998 c-28 -30 -26 -42 16 -87 l35 -40 -37 -41 c-32 -36 -36 -45 -28 -67 13 -39 26 -38 81 5 l49 39 42 -39 c36 -33 45 -37 63 -28 33 18 33 39 -1 86 l-33 46 33 45 c27 39 30 50 21 70 -15 32 -41 29 -88 -12 l-40 -34 -29 30 c-45 48 -60 53 -84 27z"/><path d="M5003 9977 l-38 -35 -33 29 c-40 36 -66 37 -88 4 -16 -24 -15 -26 15 -60 17 -20 31 -39 31 -44 0 -5 -13 -25 -30 -46 -33 -42 -35 -52 -16 -77 18 -25 23 -23 77 22 l47 39 37 -40 c43 -46 74 -49 89 -8 8 22 4 33 -24 68 l-33 41 33 41 c32 40 32 43 17 68 -22 37 -40 37 -84 -2z"/><path d="M6866 9985 c-20 -31 -13 -60 20 -81 31 -21 30 -36 -6 -77 -32 -37 -37 -56 -18 -75 21 -21 57 -13 92 23 l35 34 27 -32 c38 -46 51 -51 80 -33 32 21 30 40 -6 86 -16 21 -30 41 -30 44 0 3 17 24 37 47 l36 40 -25 26 -26 25 -47 -35 -47 -36 -34 25 c-19 15 -34 30 -34 35 0 19 -39 8 -54 -16z"/><path d="M6012 9984 c-29 -20 -28 -35 8 -69 17 -16 30 -35 30 -43 0 -8 -13 -30 -30 -49 -32 -37 -38 -64 -16 -82 18 -15 44 -5 83 32 l32 30 41 -36 c46 -42 48 -43 78 -21 29 20 28 33 -8 74 -37 44 -37 57 1 97 31 31 32 33 15 58 -22 33 -48 32 -91 -6 l-36 -32 -32 32 c-38 35 -44 37 -75 15z"/><path d="M5140 9700 c-27 -27 -25 -41 10 -75 17 -16 30 -35 30 -42 0 -7 -15 -30 -34 -51 -31 -34 -34 -41 -23 -62 19 -38 45 -36 88 6 l38 37 38 -34 c21 -19 39 -39 39 -44 1 -6 -16 -25 -38 -44 l-39 -34 -33 33 c-41 39 -76 38 -90 -3 -9 -24 -6 -31 24 -62 l34 -35 -32 -44 c-36 -49 -38 -63 -18 -91 13 -18 14 -18 42 -1 16 10 40 29 55 42 l25 24 34 -35 c36 -37 63 -43 93 -21 21 16 14 37 -29 89 -32 38 -30 57 6 92 35 33 36 38 14 60 -16 15 -16 19 -1 49 15 32 14 35 -14 77 -16 24 -29 49 -29 55 0 5 15 25 34 43 33 32 34 35 20 56 -25 38 -42 37 -88 -5 l-43 -40 -29 31 c-45 47 -60 53 -84 29z"/><path d="M5722 9704 c-31 -21 -28 -42 14 -85 l36 -37 -36 -40 c-38 -42 -44 -60 -24 -80 19 -19 37 -14 80 23 l41 35 43 -40 c47 -43 78 -45 88 -4 5 19 -1 34 -24 62 -38 46 -38 61 0 97 35 33 37 46 11 69 -22 20 -45 13 -87 -26 l-31 -29 -34 35 c-38 40 -45 42 -77 20z"/><path d="M6017 9702 c-23 -26 -21 -46 8 -78 33 -35 32 -54 -5 -89 -35 -34 -37 -45 -11 -76 l19 -23 47 38 46 39 32 -30 c46 -43 63 -46 86 -16 22 27 18 47 -14 73 -38 31 -38 48 -1 88 41 42 44 57 17 72 -32 17 -56 12 -86 -20 l-28 -29 -39 34 c-44 40 -49 41 -71 17z"/><path d="M7070 9711 c-9 -3 -33 -19 -53 -35 l-38 -29 -34 33 c-26 25 -39 31 -58 26 -39 -9 -41 -45 -7 -88 17 -20 30 -40 30 -43 0 -4 -14 -25 -31 -46 -30 -38 -30 -40 -15 -64 22 -33 35 -32 85 11 l42 37 37 -36 c30 -29 41 -33 60 -26 35 14 36 35 3 84 -32 48 -32 65 4 95 32 27 36 46 12 67 -13 12 -29 18 -37 14z"/><path d="M4846 9688 c-17 -23 -15 -27 33 -80 l24 -27 -38 -46 c-33 -41 -36 -49 -26 -71 14 -32 30 -30 78 11 23 19 45 35 49 35 5 0 25 -16 46 -37 36 -35 37 -36 62 -19 33 21 33 34 -4 82 -16 21 -30 43 -30 48 0 4 14 25 31 47 25 32 28 42 19 59 -16 29 -49 25 -87 -11 l-32 -32 -36 32 c-42 36 -68 39 -89 9z"/><path d="M4869 9423 c-9 -2 -22 -15 -29 -29 -13 -23 -11 -27 28 -67 l41 -42 -41 -48 c-36 -43 -39 -51 -30 -73 7 -13 17 -24 25 -24 15 0 52 24 88 57 l26 24 17 -25 c9 -14 31 -33 48 -42 32 -17 32 -17 9 -26 -13 -4 -32 -19 -43 -33 -25 -32 -37 -31 -83 5 -37 30 -45 30 -77 2 -25 -21 -22 -38 12 -74 17 -17 30 -34 30 -37 0 -3 -16 -26 -35 -50 -19 -24 -35 -39 -35 -33 0 6 -13 27 -30 45 -16 19 -30 38 -30 41 0 4 14 25 32 47 29 36 30 41 18 64 -18 34 -33 32 -80 -11 l-40 -36 -45 41 c-24 22 -49 41 -54 41 -5 0 -19 -14 -31 -31 -19 -25 -20 -32 -9 -42 8 -7 25 -24 38 -39 l24 -28 -31 -39 c-34 -42 -39 -66 -19 -92 16 -21 41 -12 86 30 l34 32 21 -24 c12 -14 33 -32 47 -41 24 -15 28 -15 53 5 28 22 37 19 49 -15 4 -13 46 11 85 48 l33 31 27 -31 c37 -43 69 -59 88 -43 22 18 17 52 -17 98 l-30 42 30 35 c34 38 36 46 20 75 -7 14 -7 29 2 53 11 31 10 38 -19 81 -34 52 -33 62 12 104 23 22 24 25 9 47 -21 33 -56 31 -84 -6 -13 -16 -29 -30 -35 -30 -5 0 -25 16 -44 35 -19 19 -36 34 -39 34 -4 -1 -13 -3 -22 -6z"/><path d="M5714 9405 c-15 -24 -15 -26 15 -64 30 -38 31 -41 18 -73 -8 -18 -21 -39 -30 -47 -20 -16 -22 -41 -4 -65 12 -17 16 -17 43 -3 16 8 40 27 53 41 l24 26 43 -40 c36 -33 47 -38 66 -31 35 12 34 50 -2 95 -16 21 -30 43 -30 48 0 6 14 28 31 49 57 72 0 113 -67 48 l-32 -31 -40 36 c-47 42 -66 45 -88 11z"/><path d="M6030 9417 c-37 -18 -36 -44 1 -83 l33 -34 -39 -55 c-33 -49 -37 -59 -27 -80 16 -36 39 -31 85 17 l40 42 22 -26 c34 -39 83 -62 101 -47 22 18 17 53 -16 94 -16 21 -30 43 -30 48 0 6 14 26 31 43 24 25 30 38 25 57 -3 14 -13 28 -22 31 -20 8 -68 -18 -88 -46 l-16 -22 -37 37 c-35 33 -40 35 -63 24z"/><path d="M6295 9400 l-28 -29 37 -41 c38 -43 38 -44 0 -97 -27 -36 -29 -52 -11 -77 12 -16 17 -17 38 -6 13 7 38 26 56 42 30 29 31 30 42 10 6 -11 27 -30 47 -43 32 -20 35 -23 18 -30 -10 -4 -32 -21 -48 -38 l-30 -31 -30 28 c-41 38 -59 44 -85 26 -22 -16 -28 -48 -11 -59 5 -3 18 -18 29 -34 l20 -28 -40 -47 c-21 -27 -39 -43 -39 -36 0 7 -13 28 -30 47 -16 18 -30 37 -30 41 0 5 14 21 30 37 35 34 38 58 9 79 -19 13 -25 13 -50 1 -15 -8 -35 -25 -43 -36 l-15 -22 -36 36 c-43 43 -48 44 -75 17 -27 -27 -25 -34 11 -80 l31 -39 -40 -47 c-39 -46 -40 -48 -24 -69 14 -18 21 -21 43 -13 14 5 39 22 54 38 l28 30 44 -41 44 -40 32 20 c32 20 33 20 45 1 15 -25 39 -17 87 29 l36 34 41 -42 c46 -46 58 -49 81 -23 24 27 21 40 -19 89 l-37 45 38 38 c38 39 38 39 21 65 -16 24 -16 28 -2 50 22 33 20 42 -14 85 -16 21 -30 42 -30 47 0 5 13 24 30 43 16 19 29 40 29 45 0 11 -34 55 -42 55 -3 0 -25 -18 -49 -39 l-43 -40 -40 40 c-23 21 -43 39 -46 39 -3 0 -18 -13 -34 -30z"/><path d="M6587 9412 c-24 -26 -21 -39 13 -79 17 -18 30 -37 30 -42 0 -5 -13 -25 -30 -46 -33 -42 -37 -62 -17 -89 12 -16 17 -17 38 -6 13 7 36 24 51 38 l27 25 40 -36 c43 -39 72 -40 89 -4 8 18 3 31 -26 70 l-35 48 25 27 c48 53 50 58 37 86 -16 34 -25 33 -78 -9 -24 -19 -47 -35 -50 -35 -4 0 -22 16 -41 35 -39 40 -50 42 -73 17z"/><path d="M6876 9409 c-14 -11 -26 -25 -26 -30 0 -5 16 -27 36 -49 36 -40 36 -40 19 -67 -10 -16 -27 -38 -38 -50 -17 -19 -19 -27 -9 -48 16 -35 45 -31 92 12 l41 36 37 -36 c21 -21 42 -37 48 -37 11 0 54 42 54 52 0 3 -13 22 -30 43 -16 21 -30 44 -30 52 0 9 14 33 31 54 32 41 32 42 -13 77 -15 12 -22 9 -53 -23 l-37 -36 -43 35 c-24 20 -45 36 -48 36 -2 0 -16 -9 -31 -21z"/><path d="M5146 9109 c-34 -27 -33 -36 9 -79 l35 -36 -30 -42 c-16 -23 -30 -53 -30 -67 0 -40 51 -35 94 9 l33 35 34 -35 c26 -27 41 -34 63 -32 46 5 56 32 24 65 -14 15 -31 39 -38 52 -11 21 -8 27 26 62 36 37 37 38 20 64 -21 32 -46 27 -93 -18 l-33 -31 -27 25 c-56 50 -58 51 -87 28z"/><path d="M5722 9114 c-31 -21 -27 -45 13 -84 19 -19 35 -37 35 -40 0 -4 -16 -24 -37 -45 -35 -36 -36 -38 -20 -64 23 -38 40 -37 87 5 l41 37 37 -36 c42 -41 66 -46 82 -18 15 28 13 34 -20 76 -16 21 -30 43 -30 49 0 7 14 27 32 45 27 27 30 36 22 58 -13 38 -40 36 -84 -3 l-39 -35 -39 35 c-45 41 -49 42 -80 20z"/><path d="M6593 9113 c-31 -20 -29 -37 8 -83 33 -41 32 -56 -10 -94 -25 -22 -27 -49 -6 -66 21 -17 56 -6 88 28 l28 29 35 -34 c43 -40 80 -43 96 -9 9 21 6 30 -21 63 -17 20 -31 41 -31 46 0 4 14 26 32 48 29 36 30 41 18 64 -11 20 -18 23 -39 18 -14 -3 -35 -13 -46 -23 -38 -33 -46 -33 -76 -4 -35 33 -47 36 -76 17z"/><path d="M6866 9108 c-22 -30 -21 -32 20 -78 40 -44 40 -42 -14 -101 -23 -26 -23 -28 -7 -53 23 -34 39 -33 86 8 l40 33 33 -33 c40 -40 61 -42 87 -11 24 28 24 29 -6 63 -40 46 -41 62 -6 98 33 34 38 55 19 74 -21 21 -61 13 -95 -20 l-32 -31 -41 36 c-46 43 -63 46 -84 15z"/><path d="M2830 8818 l-19 -31 35 -40 c19 -23 34 -44 34 -47 0 -4 -16 -23 -36 -44 -35 -36 -36 -44 -6 -78 13 -15 18 -16 41 -4 14 8 37 26 50 40 l24 26 43 -40 c50 -45 55 -47 77 -22 24 27 21 47 -13 85 -16 19 -30 38 -30 42 0 4 16 25 35 48 41 47 41 48 17 77 -17 21 -20 22 -48 7 -16 -8 -40 -27 -53 -41 l-24 -26 -43 40 c-24 22 -48 40 -54 40 -6 0 -19 -14 -30 -32z"/><path d="M3130 8830 c-24 -24 -25 -43 -5 -60 9 -7 25 -25 35 -40 l19 -27 -34 -41 c-37 -43 -42 -61 -23 -80 20 -20 43 -14 84 22 l39 34 38 -34 c42 -39 71 -43 87 -13 12 21 9 27 -39 89 l-19 25 39 44 40 44 16 -23 c9 -13 25 -32 35 -42 24 -24 23 -32 -13 -73 -28 -31 -30 -39 -21 -60 16 -35 45 -31 90 9 l37 34 43 -40 c40 -36 45 -38 65 -25 31 21 31 29 -6 83 l-34 49 34 41 c29 36 32 45 23 68 -14 37 -47 33 -91 -10 l-37 -37 -32 36 c-44 51 -68 56 -96 22 -22 -28 -22 -28 -33 -6 -17 30 -41 26 -85 -14 l-39 -35 -43 40 c-24 22 -46 40 -49 40 -3 0 -14 -9 -25 -20z"/><path d="M3697 8832 c-23 -26 -21 -37 14 -88 l32 -43 -36 -45 -36 -44 24 -26 c13 -14 26 -26 29 -26 3 0 24 18 48 40 l43 39 35 -34 c42 -41 64 -44 86 -10 15 23 15 26 -5 53 -11 16 -27 35 -36 42 -13 11 -11 18 20 56 19 23 35 46 35 51 0 5 -11 20 -24 32 l-24 23 -46 -42 -46 -42 -41 41 c-23 22 -45 41 -49 41 -4 0 -14 -8 -23 -18z"/><path d="M5431 8824 c-12 -15 -21 -30 -21 -34 0 -4 16 -25 35 -46 19 -22 35 -42 35 -45 0 -3 -16 -23 -35 -45 -38 -42 -41 -54 -23 -72 20 -20 48 -14 89 19 43 34 46 33 97 -19 25 -27 27 -32 9 -32 -7 0 -26 -14 -42 -30 l-29 -30 -36 35 c-40 39 -59 43 -83 17 -23 -26 -22 -31 20 -74 l36 -37 -36 -41 c-21 -22 -37 -46 -37 -54 0 -14 26 -46 36 -46 12 0 51 25 77 49 l29 26 32 -37 c35 -40 59 -46 90 -23 18 13 17 16 -13 65 -17 27 -31 54 -31 59 0 4 14 26 31 47 l31 39 -27 23 -27 23 26 20 c33 26 33 34 -4 76 -16 18 -30 39 -30 46 0 7 14 27 31 45 29 30 30 35 19 63 -17 41 -50 38 -95 -8 -31 -33 -37 -36 -48 -23 -7 9 -28 28 -48 43 l-37 28 -21 -27z"/><path d="M7324 8808 l-45 -41 -38 37 c-42 41 -65 44 -87 10 -13 -19 -11 -25 22 -68 l36 -47 -36 -39 c-32 -36 -34 -42 -24 -65 15 -33 33 -32 82 9 l42 34 43 -40 c23 -22 41 -41 39 -41 -2 -1 -20 -18 -41 -36 l-37 -35 -39 39 c-39 37 -40 38 -65 21 -33 -21 -33 -46 -1 -84 32 -38 31 -44 -6 -87 -29 -33 -31 -38 -19 -60 18 -34 50 -32 85 5 35 37 45 37 76 4 42 -45 56 -48 85 -19 l26 26 -37 44 c-39 48 -38 61 4 99 26 24 26 37 2 67 -18 23 -18 23 3 34 32 16 30 37 -10 88 l-37 48 36 37 c21 21 37 42 37 47 -1 12 -36 55 -44 55 -4 0 -27 -19 -52 -42z"/><path d="M4560 8814 c-13 -34 -14 -31 20 -67 16 -18 30 -36 30 -42 0 -5 -14 -25 -30 -44 -33 -37 -36 -48 -16 -73 19 -25 32 -23 77 13 43 34 40 34 98 -19 30 -28 51 -25 70 10 14 25 13 28 -23 68 -41 45 -41 43 12 102 24 26 24 28 9 52 -20 30 -49 26 -93 -15 l-30 -29 -34 35 c-41 43 -76 46 -90 9z"/><path d="M4870 8833 c-39 -15 -39 -52 1 -97 l31 -36 -36 -43 c-40 -49 -43 -59 -20 -81 21 -22 24 -21 77 20 l47 37 40 -37 c22 -20 44 -36 49 -36 5 0 19 12 30 26 l21 27 -34 45 -34 46 35 42 c33 42 34 43 18 68 -23 35 -42 33 -86 -10 l-36 -35 -39 35 c-22 20 -41 36 -44 35 -3 0 -12 -3 -20 -6z"/><path d="M5140 8820 c-27 -27 -26 -31 15 -80 38 -46 39 -44 -13 -102 -24 -26 -24 -28 -8 -53 22 -33 33 -31 85 13 l44 38 38 -40 c37 -40 39 -41 66 -26 39 22 39 40 -2 88 -30 35 -34 45 -25 62 6 11 15 20 19 20 5 0 16 11 25 25 16 24 16 27 -1 50 -24 33 -37 31 -84 -13 l-41 -37 -39 37 c-46 44 -52 45 -79 18z"/><path d="M6011 8814 l-21 -26 35 -40 c37 -44 37 -55 -9 -97 -31 -29 -32 -42 -8 -64 26 -23 33 -22 79 17 l40 35 39 -40 c44 -45 57 -48 78 -17 22 31 20 42 -14 80 -16 18 -30 36 -30 41 0 4 14 26 32 48 28 34 30 42 20 64 -10 21 -16 24 -39 19 -16 -4 -40 -18 -55 -32 l-27 -25 -39 32 c-48 38 -55 38 -81 5z"/><path d="M6312 8824 c-30 -21 -28 -47 10 -89 l31 -36 -43 -44 c-37 -38 -41 -46 -30 -60 31 -37 48 -37 88 0 22 19 44 35 49 35 5 0 24 -16 43 -35 40 -41 46 -42 77 -13 l23 22 16 -22 c20 -30 30 -28 81 14 l43 36 36 -31 c40 -36 64 -39 89 -11 19 21 19 22 -35 92 l-21 27 37 41 c34 37 36 43 24 65 -17 32 -52 25 -98 -18 l-32 -31 -39 38 c-43 42 -64 43 -82 2 -10 -22 -8 -30 20 -64 l31 -39 -30 -42 c-17 -22 -34 -41 -38 -41 -11 0 -47 39 -61 68 -10 19 -8 27 20 62 28 35 31 43 21 65 -16 35 -47 31 -88 -11 l-34 -37 -37 37 c-43 41 -41 41 -71 20z"/><path d="M3330 8553 c-8 -3 -30 -19 -47 -36 l-33 -31 -33 32 c-18 18 -39 32 -47 32 -37 -1 -75 -62 -46 -73 8 -3 22 -17 32 -31 16 -25 15 -27 -15 -61 -33 -38 -39 -66 -17 -84 18 -15 52 -2 90 34 l29 26 37 -36 c29 -28 44 -36 66 -33 42 4 44 39 5 84 -38 43 -39 53 -1 89 17 16 30 34 30 41 0 20 -34 52 -50 47z"/><path d="M3979 8535 l-15 -26 -24 21 c-33 29 -64 25 -94 -11 l-26 -31 -35 31 c-42 36 -54 38 -86 12 l-24 -19 33 -40 c17 -23 32 -45 32 -51 0 -6 -13 -26 -30 -44 -34 -39 -37 -53 -14 -78 20 -22 39 -16 86 29 l36 34 37 -41 c42 -46 54 -49 78 -23 24 26 21 39 -14 83 l-31 39 32 40 c17 22 35 40 40 40 10 0 70 -68 70 -79 0 -4 -12 -18 -26 -32 -41 -38 -48 -57 -30 -84 14 -21 19 -23 45 -14 16 6 39 21 52 35 29 31 39 30 70 -5 31 -35 46 -39 77 -23 29 17 28 32 -9 87 l-31 47 38 39 38 39 -24 25 c-13 14 -29 25 -35 25 -6 0 -30 -16 -53 -36 l-42 -36 -40 36 c-47 43 -60 44 -81 11z"/><path d="M5718 8541 c-24 -24 -23 -35 12 -74 17 -19 30 -39 30 -44 0 -4 -14 -26 -31 -46 -27 -33 -30 -42 -21 -63 16 -34 40 -30 84 13 l37 36 41 -36 c45 -42 60 -45 83 -19 23 25 22 32 -13 72 -16 19 -29 38 -30 42 0 3 16 26 36 49 20 24 31 45 25 47 -6 2 -11 10 -11 17 0 8 -9 17 -20 20 -15 5 -33 -3 -64 -29 l-43 -35 -34 35 c-37 38 -56 41 -81 15z"/><path d="M6866 8535 c-21 -33 -21 -34 19 -75 l35 -36 -30 -34 c-31 -37 -38 -68 -18 -88 18 -18 31 -15 79 22 l44 33 39 -38 c37 -38 38 -38 67 -24 16 9 29 20 29 25 0 6 -15 31 -34 58 l-35 48 34 39 c40 47 42 56 16 79 -24 22 -48 15 -86 -24 l-28 -30 -43 35 c-50 41 -66 43 -88 10z"/><path d="M3138 8264 c-36 -19 -35 -38 2 -81 17 -18 30 -39 30 -46 0 -8 -13 -26 -30 -42 -34 -33 -38 -55 -12 -78 26 -24 33 -22 76 22 l39 40 35 -40 c36 -40 59 -48 80 -27 20 20 14 48 -17 87 l-30 37 35 43 c37 47 41 60 22 79 -20 20 -51 13 -84 -19 l-33 -32 -43 36 c-41 33 -44 35 -70 21z"/><path d="M3412 8257 c-29 -30 -28 -35 9 -81 l32 -38 -32 -44 c-34 -49 -37 -64 -19 -82 20 -20 46 -14 85 22 l38 34 44 -39 c40 -36 46 -38 65 -26 32 22 31 42 -5 92 l-33 45 39 40 39 40 -24 25 c-32 34 -49 32 -87 -12 l-32 -38 -43 43 c-24 23 -46 42 -49 42 -3 0 -15 -10 -27 -23z"/><path d="M4271 8253 l-21 -26 -24 22 c-29 27 -51 23 -91 -19 l-29 -30 -38 37 c-34 33 -41 36 -65 27 -41 -14 -42 -52 -3 -89 16 -16 30 -33 30 -38 0 -5 -13 -26 -30 -47 -34 -43 -36 -56 -14 -81 15 -17 17 -17 46 1 16 10 36 27 44 39 21 29 32 27 76 -16 36 -35 37 -36 62 -19 33 21 33 28 -5 82 -33 49 -34 46 16 108 14 19 15 19 36 0 12 -10 30 -31 40 -46 l19 -26 -35 -41 c-27 -33 -32 -46 -26 -64 13 -34 42 -31 89 9 l42 36 40 -36 c43 -39 51 -41 81 -26 28 16 23 41 -16 87 l-35 41 40 45 40 45 -25 26 c-13 14 -28 26 -32 26 -4 0 -27 -19 -51 -41 l-43 -41 -44 41 c-25 23 -47 41 -49 41 -3 0 -14 -12 -25 -27z"/><path d="M5437 8260 c-30 -24 -27 -47 14 -92 32 -33 32 -33 -19 -90 -24 -26 -24 -28 -8 -53 9 -14 21 -25 25 -25 5 0 31 16 56 36 l47 36 37 -36 c40 -39 63 -40 82 -5 10 20 2 44 -33 88 -18 24 -18 24 9 60 15 20 31 39 37 43 13 8 -9 35 -36 44 -14 4 -32 -4 -60 -26 l-40 -32 -37 36 c-20 20 -39 36 -43 36 -3 0 -17 -9 -31 -20z"/><path d="M5722 8264 c-29 -20 -28 -33 8 -82 17 -23 30 -45 30 -48 0 -4 -13 -22 -30 -41 -30 -34 -35 -49 -24 -77 10 -27 46 -18 86 21 l37 36 41 -36 c52 -48 79 -48 94 1 6 16 0 31 -23 59 -17 21 -31 41 -31 44 0 4 16 26 35 49 34 40 35 44 19 61 -25 27 -56 23 -89 -11 -35 -37 -45 -37 -76 -4 -37 39 -53 45 -77 28z"/><path d="M6169 8240 l-44 -39 -33 35 c-36 39 -66 42 -88 9 -14 -21 -10 -30 38 -97 10 -14 7 -23 -20 -57 -37 -46 -37 -49 -16 -79 14 -21 17 -21 45 -7 16 9 29 19 29 23 0 4 9 13 21 20 18 11 24 9 55 -18 19 -16 39 -30 44 -30 4 0 15 -3 23 -6 10 -3 18 5 26 26 12 35 5 54 -28 84 -12 11 -21 24 -21 30 0 17 80 103 80 86 0 -8 16 -30 35 -50 l34 -35 -41 -48 -40 -48 22 -24 c26 -28 43 -23 98 28 l32 31 40 -39 c36 -35 42 -37 65 -27 33 15 32 39 -6 90 l-31 42 36 43 36 44 -21 27 c-11 14 -26 26 -33 26 -6 0 -29 -18 -51 -40 l-38 -39 -43 39 c-24 22 -47 40 -51 40 -4 0 -17 -10 -30 -22 l-23 -21 -23 21 c-13 12 -26 22 -28 22 -3 0 -25 -18 -50 -40z"/><path d="M6593 8268 c-25 -32 -23 -50 12 -92 l35 -43 -36 -46 c-35 -45 -36 -48 -21 -71 21 -31 44 -25 88 20 l33 34 37 -36 c39 -38 73 -43 92 -13 8 13 3 29 -22 67 -35 55 -34 68 8 106 26 23 26 38 3 59 -27 25 -44 21 -82 -18 l-33 -34 -43 39 c-47 43 -56 47 -71 28z"/><path d="M6870 8251 c-17 -32 -12 -51 21 -82 l31 -29 -36 -47 c-20 -25 -36 -50 -36 -54 0 -4 8 -17 19 -30 l18 -22 29 20 c16 12 38 30 48 42 l19 21 44 -41 45 -41 24 23 c13 12 24 27 24 32 0 5 -14 28 -31 52 -35 48 -33 56 19 111 19 20 19 24 6 43 -21 30 -55 26 -89 -9 -16 -16 -32 -30 -35 -30 -4 0 -20 13 -36 30 -33 34 -69 39 -84 11z"/><path d="M4867 8129 c-9 -6 -22 -19 -27 -30 -9 -17 -6 -26 19 -55 17 -19 31 -42 31 -52 0 -9 -16 -35 -35 -56 -31 -35 -34 -42 -22 -60 21 -31 31 -30 82 9 l47 36 43 -35 c24 -20 47 -36 51 -36 4 0 18 10 30 21 21 20 22 24 10 48 -8 14 -23 35 -35 45 -28 26 -27 39 10 81 29 33 31 38 19 60 -18 33 -40 31 -75 -5 -16 -16 -34 -30 -40 -30 -6 0 -29 15 -51 34 -31 26 -44 32 -57 25z"/><path d="M5455 7978 c-12 -5 -27 -18 -34 -29 -11 -18 -8 -25 23 -60 20 -21 36 -43 36 -47 0 -5 -13 -26 -30 -48 -36 -48 -37 -57 -5 -74 22 -12 28 -10 68 22 l43 36 43 -40 42 -40 25 23 25 24 17 -23 17 -22 47 29 c25 16 49 34 52 40 5 7 21 -2 44 -24 38 -36 69 -44 90 -23 19 19 14 40 -18 78 -37 44 -37 53 0 93 31 33 34 44 24 71 -10 27 -49 18 -88 -21 l-36 -37 -38 37 c-43 42 -61 46 -86 18 -16 -18 -16 -21 -1 -50 8 -17 19 -31 24 -31 23 0 18 -35 -12 -80 -35 -54 -42 -58 -50 -32 -4 9 -18 31 -31 48 l-26 31 36 42 c35 40 35 42 20 66 -22 33 -38 31 -81 -6 l-35 -31 -43 34 c-33 28 -46 33 -62 26z"/><path d="M3407 7962 c-25 -27 -21 -43 18 -81 l35 -34 -36 -48 c-31 -42 -33 -50 -22 -68 22 -36 40 -34 84 10 l42 42 40 -42 c45 -48 63 -51 82 -15 l14 25 19 -26 c23 -31 47 -27 93 17 l31 29 34 -30 c44 -41 66 -47 90 -25 26 23 24 32 -16 83 l-35 44 35 38 c19 22 35 42 35 47 -1 10 -37 52 -45 52 -4 0 -27 -16 -51 -37 l-45 -36 -37 36 c-43 42 -65 46 -86 16 -13 -19 -13 -26 -1 -49 7 -14 21 -32 29 -39 24 -20 19 -47 -14 -83 l-29 -33 -35 40 c-20 22 -36 44 -36 50 0 5 14 24 32 42 28 29 31 36 22 60 -14 42 -48 42 -86 -1 l-31 -35 -39 34 c-43 39 -67 44 -91 17z"/><path d="M4272 7957 l-22 -23 34 -40 c37 -44 36 -62 -8 -103 -30 -29 -31 -34 -10 -66 15 -23 18 -23 42 -10 15 7 38 25 52 38 l25 24 49 -39 c45 -35 51 -37 70 -24 32 21 31 42 -8 90 -32 38 -34 45 -21 56 9 7 25 26 37 42 17 24 19 34 9 54 -15 34 -44 30 -91 -13 l-41 -36 -30 36 c-35 43 -57 46 -87 14z"/><path d="M6011 7956 l-23 -24 37 -40 c40 -45 39 -56 -9 -101 -29 -27 -33 -48 -13 -75 12 -16 17 -17 38 -6 13 7 38 25 55 41 l30 29 34 -35 c36 -37 71 -45 96 -21 19 20 19 22 -22 77 l-36 49 37 41 c34 37 35 42 22 62 -23 35 -51 32 -92 -9 l-37 -36 -37 36 c-20 20 -41 36 -47 36 -6 0 -21 -11 -33 -24z"/><path d="M6587 7962 c-24 -26 -22 -34 18 -72 19 -19 35 -38 35 -43 0 -5 -16 -27 -35 -48 -31 -34 -33 -42 -23 -63 17 -39 35 -38 79 1 l40 36 40 -39 c38 -38 41 -38 67 -24 38 22 38 44 3 89 -17 21 -31 44 -31 50 0 5 14 26 30 44 32 37 37 56 18 75 -19 19 -43 14 -83 -18 -40 -32 -53 -30 -89 9 -23 26 -48 27 -69 3z"/><path d="M6875 7960 c-20 -22 -15 -41 26 -91 l21 -27 -31 -45 c-37 -54 -37 -58 -11 -82 20 -18 21 -17 68 21 l47 40 38 -39 38 -38 25 26 c30 33 30 40 -1 77 -32 38 -31 47 5 93 17 21 30 39 30 40 0 8 -40 45 -48 45 -6 0 -27 -14 -47 -31 l-35 -31 -39 31 c-46 36 -61 38 -86 11z"/><path d="M4851 7816 c-11 -12 -21 -26 -21 -31 0 -5 16 -26 37 -47 l36 -37 -36 -41 c-40 -43 -42 -51 -26 -81 13 -25 39 -18 93 24 l39 31 19 -27 c28 -38 51 -49 82 -37 34 13 33 38 -4 85 -16 21 -30 40 -30 43 0 3 15 23 33 46 l34 41 -27 29 -27 28 -42 -37 -42 -38 -27 25 c-48 45 -66 50 -91 24z"/><path d="M5140 7820 c-27 -27 -25 -34 11 -80 l31 -38 -18 -31 c-10 -17 -21 -31 -25 -31 -16 0 -18 -35 -4 -56 21 -32 35 -30 81 10 l39 34 40 -39 41 -39 34 36 c31 31 33 36 18 45 -9 5 -26 23 -38 39 l-21 30 35 41 35 42 -20 28 c-11 16 -25 29 -30 29 -5 0 -27 -16 -49 -36 l-40 -36 -44 36 c-24 20 -47 36 -50 36 -3 0 -15 -9 -26 -20z"/><path d="M3708 7669 c-16 -11 -28 -26 -28 -32 0 -6 16 -28 36 -48 l37 -37 -37 -46 c-39 -47 -39 -64 -2 -95 12 -10 22 -6 59 28 l44 40 38 -39 c41 -42 50 -42 78 -4 18 24 18 25 -12 61 -37 44 -38 54 -10 79 32 29 40 50 29 78 -13 35 -41 33 -85 -5 l-36 -32 -26 24 c-15 13 -33 30 -41 37 -16 15 -11 16 -44 -9z"/><path d="M3988 7673 c-29 -35 -29 -42 8 -82 l36 -41 -29 -37 c-16 -21 -32 -45 -36 -54 -5 -16 25 -59 42 -59 4 0 27 19 50 42 l43 42 40 -42 c22 -23 43 -42 47 -42 9 0 51 44 51 53 0 4 -13 26 -30 49 -16 22 -30 45 -30 49 0 5 16 26 35 48 l35 38 -21 27 c-27 34 -38 33 -79 -9 -19 -19 -39 -35 -45 -35 -6 0 -26 16 -45 35 -38 40 -50 42 -72 18z"/><path d="M4277 7672 c-25 -27 -21 -55 13 -87 17 -16 30 -32 30 -37 0 -4 -16 -26 -37 -48 l-36 -41 20 -27 c26 -34 50 -30 88 15 l30 35 20 -22 c11 -12 33 -31 48 -42 26 -19 29 -19 52 -4 29 19 32 48 7 73 -58 60 -58 58 -14 104 38 39 40 43 26 65 -24 36 -40 36 -91 -3 l-47 -36 -33 37 c-37 41 -53 44 -76 18z"/><path d="M5711 7661 l-21 -29 42 -41 41 -42 -24 -27 c-44 -48 -51 -61 -44 -82 3 -11 15 -25 26 -30 15 -9 26 -4 62 29 l44 40 37 -38 c40 -40 53 -44 80 -22 23 19 20 38 -14 81 -16 21 -30 43 -30 49 0 6 16 28 35 49 26 30 32 41 23 50 -7 7 -8 12 -4 12 5 0 3 7 -4 15 -20 24 -41 18 -82 -22 l-38 -37 -38 37 c-46 45 -64 46 -91 8z"/><path d="M6018 7668 c-24 -30 -23 -37 13 -81 l31 -38 -36 -43 c-41 -50 -44 -66 -17 -90 23 -21 41 -14 85 33 l30 31 43 -42 43 -42 30 29 c16 16 30 31 30 34 0 3 -16 24 -35 45 -19 22 -35 43 -35 46 0 4 16 25 36 48 38 45 37 59 -9 83 -16 9 -26 5 -58 -27 l-39 -38 -38 37 c-44 43 -51 44 -74 15z"/><path d="M4863 7540 c-33 -13 -29 -52 8 -95 l31 -35 -28 -36 c-50 -63 -50 -61 -30 -83 27 -30 45 -26 88 16 l38 37 38 -37 c21 -20 41 -37 44 -37 4 0 19 11 33 24 29 27 29 29 -18 88 l-30 37 37 41 c35 39 36 41 20 65 -9 14 -21 25 -26 25 -18 0 -53 -23 -75 -49 l-22 -26 -38 38 c-21 20 -41 37 -43 36 -3 0 -15 -4 -27 -9z"/><path d="M4568 7373 c-26 -30 -29 -41 -16 -55 7 -8 24 -26 37 -40 l23 -27 -31 -38 c-38 -46 -40 -79 -6 -95 21 -10 29 -7 68 25 l44 36 34 -35 c39 -40 58 -42 88 -10 l23 24 -36 40 c-41 45 -44 62 -15 88 36 32 41 51 23 79 -9 14 -21 25 -26 25 -5 0 -30 -16 -54 -36 l-44 -36 -40 36 c-46 41 -51 43 -72 19z"/><path d="M3411 7088 c-19 -20 -22 -20 -39 -5 -28 25 -47 21 -87 -20 l-35 -37 -38 37 c-21 20 -42 37 -48 37 -12 0 -54 -42 -54 -54 0 -4 14 -25 31 -46 31 -38 31 -40 15 -62 -52 -73 -50 -66 -32 -93 22 -33 34 -32 80 11 l39 35 43 -42 44 -43 29 28 c29 28 29 28 40 7 16 -29 31 -27 85 15 l47 36 39 -36 c47 -43 64 -45 86 -11 l17 26 15 -23 c8 -13 16 -24 18 -26 4 -5 82 37 89 48 11 18 41 11 65 -15 25 -27 59 -32 78 -13 19 19 14 38 -18 75 -16 18 -30 39 -30 45 0 5 14 26 30 45 35 39 37 54 12 76 -25 23 -27 22 -76 -18 l-43 -35 -40 35 c-47 40 -68 44 -83 16 -15 -30 -13 -38 26 -81 l36 -40 -27 -36 c-40 -52 -53 -53 -92 -8 -18 21 -33 41 -33 44 0 3 15 21 33 40 32 35 36 61 15 88 -17 20 -40 14 -78 -23 l-37 -36 -40 41 c-47 46 -55 48 -82 18z m18 -83 l33 -45 -36 -45 -37 -44 -34 38 c-19 21 -35 43 -35 48 0 11 62 93 70 93 3 0 20 -21 39 -45z"/><path d="M4583 7090 c-37 -15 -38 -46 -4 -86 17 -19 31 -39 31 -45 0 -6 -12 -26 -27 -46 -32 -42 -38 -67 -18 -83 16 -13 54 3 93 40 l24 22 37 -36 c42 -41 48 -42 79 -17 29 25 28 42 -8 76 -16 16 -30 33 -30 37 0 5 16 30 35 56 l36 46 -24 24 c-22 21 -27 23 -48 12 -13 -7 -34 -24 -46 -39 l-22 -26 -38 38 c-21 20 -41 37 -43 36 -3 0 -15 -4 -27 -9z"/><path d="M5735 6972 c-5 -4 -16 -15 -23 -24 -15 -19 -6 -44 29 -82 26 -27 24 -40 -11 -79 -34 -39 -37 -53 -14 -78 15 -16 19 -17 44 -4 16 8 38 27 49 42 l22 26 37 -36 c39 -38 69 -46 90 -25 20 20 14 45 -19 83 -34 39 -35 34 20 106 l20 25 -23 29 -23 28 -47 -43 -47 -43 -42 41 c-46 45 -47 46 -62 34z"/><path d="M6168 6942 l-45 -41 -33 34 c-39 41 -56 43 -81 13 -19 -21 -25 -48 -11 -48 4 0 19 -15 34 -34 l27 -34 -35 -40 c-39 -46 -42 -62 -16 -85 25 -23 26 -23 76 23 l43 39 38 -39 c22 -22 43 -40 48 -40 4 0 19 12 32 26 l25 27 -35 43 c-19 23 -35 46 -35 50 0 4 17 24 38 44 l37 37 -31 33 -32 33 -44 -41z"/><path d="M5426 6948 c-22 -31 -21 -35 19 -84 l35 -42 -31 -31 c-22 -22 -29 -38 -27 -58 5 -42 46 -43 93 -2 36 32 38 32 51 14 27 -36 65 -54 90 -43 32 15 30 37 -6 87 l-31 42 37 44 c35 44 36 46 20 70 -22 33 -31 32 -82 -10 -23 -19 -47 -35 -52 -35 -6 0 -24 16 -41 35 -35 41 -54 44 -75 13z"/><path d="M3414 6786 l-28 -23 37 -45 36 -44 -19 -29 c-10 -16 -26 -32 -34 -37 -21 -12 -20 -27 3 -57 l19 -24 51 37 51 38 40 -36 c45 -41 52 -42 74 -20 23 23 20 45 -15 93 l-32 42 37 38 37 37 -21 27 c-12 15 -26 27 -32 27 -6 0 -28 -16 -50 -35 l-38 -35 -28 25 c-47 45 -58 48 -88 21z"/><path d="M3712 6803 c-7 -2 -17 -14 -23 -25 -9 -16 -4 -27 25 -62 l35 -43 -38 -44 c-33 -37 -37 -47 -28 -66 15 -33 46 -28 91 13 l39 35 36 -35 c42 -41 70 -46 89 -15 12 19 10 26 -17 64 -17 24 -31 47 -31 51 0 5 16 25 36 45 40 40 38 50 -13 78 -20 10 -27 7 -60 -23 l-38 -34 -39 34 c-39 35 -42 36 -64 27z"/><path d="M3987 6792 c-24 -27 -21 -49 13 -85 16 -18 30 -36 30 -42 -1 -5 -14 -26 -30 -45 -33 -38 -37 -61 -15 -80 18 -15 41 -6 90 34 l30 25 39 -35 c44 -39 56 -41 79 -16 20 22 22 48 5 55 -7 3 -22 21 -32 41 l-19 35 37 42 38 41 -23 24 c-12 13 -27 24 -32 24 -5 0 -31 -16 -57 -35 l-47 -34 -33 34 c-39 40 -50 42 -73 17z"/><path d="M4730 6774 l-39 -36 -38 31 c-43 36 -63 39 -86 13 -24 -27 -21 -44 13 -77 17 -16 30 -34 30 -40 0 -6 -13 -24 -30 -40 -33 -32 -38 -58 -15 -81 17 -17 43 -7 87 33 l27 26 38 -32 c76 -63 134 -25 74 49 -17 21 -31 43 -31 47 0 5 18 26 39 47 l39 38 -26 29 c-14 16 -29 29 -34 29 -4 0 -26 -16 -48 -36z"/><path d="M5145 6650 c-15 -29 -15 -33 4 -59 11 -15 27 -34 36 -41 14 -12 12 -17 -21 -52 -34 -34 -37 -41 -28 -65 14 -41 41 -40 84 2 42 41 51 40 94 -12 l26 -31 -31 -31 c-17 -17 -35 -31 -40 -31 -6 0 -28 14 -49 31 -34 27 -42 30 -55 19 -36 -30 -36 -46 0 -87 l34 -39 -37 -52 -36 -52 22 -22 21 -21 42 28 c23 16 44 35 46 43 4 9 19 1 49 -29 42 -41 43 -42 68 -25 34 22 33 35 -9 87 l-34 44 28 30 c41 43 47 70 19 89 l-22 16 22 16 c31 21 28 40 -14 91 l-36 44 36 39 c20 22 36 44 36 48 0 5 -10 18 -23 30 l-22 21 -46 -39 -45 -38 -42 39 c-24 21 -47 39 -52 39 -5 0 -17 -14 -25 -30z"/><path d="M5438 6663 c-29 -35 -29 -42 8 -83 l37 -41 -32 -39 c-33 -42 -40 -80 -16 -100 13 -11 13 -15 0 -33 -21 -30 -19 -42 16 -82 l31 -35 -36 -41 c-34 -40 -35 -43 -20 -70 19 -37 32 -36 85 6 l44 35 18 -25 c30 -40 54 -49 83 -30 31 20 30 33 -6 81 -16 21 -30 42 -30 46 0 4 16 23 35 42 l35 35 -20 34 c-20 33 -20 36 -4 64 17 28 16 30 -14 72 -18 24 -29 49 -25 55 4 6 17 25 30 42 28 38 28 46 4 68 -23 21 -41 14 -84 -32 l-29 -30 -35 39 c-39 43 -53 47 -75 22z m152 -231 l40 -38 -39 -38 c-38 -37 -39 -38 -58 -20 -10 11 -32 30 -48 43 -21 17 -26 25 -16 29 7 2 28 17 45 33 17 16 32 29 33 29 2 0 21 -17 43 -38z"/><path d="M5717 6662 c-24 -26 -21 -38 14 -82 35 -43 37 -33 -17 -108 -14 -18 -15 -28 -6 -47 16 -34 42 -31 82 10 41 42 49 43 81 9 42 -45 56 -48 85 -19 l26 26 -42 45 -42 46 36 37 c40 41 44 60 18 84 -25 23 -27 22 -76 -18 l-43 -35 -33 35 c-38 39 -59 43 -83 17z"/><path d="M3713 6517 c-38 -17 -38 -43 1 -89 l36 -41 -34 -42 -35 -42 24 -29 24 -29 40 40 41 39 39 -38 c42 -41 65 -44 87 -10 13 19 11 25 -16 62 -16 23 -30 44 -30 47 0 2 14 24 31 48 26 38 29 48 20 66 -17 30 -50 26 -88 -11 l-33 -32 -27 25 c-49 44 -56 47 -80 36z"/><path d="M3992 6504 c-30 -21 -28 -43 8 -82 17 -18 30 -38 30 -44 0 -6 -13 -26 -30 -45 -35 -39 -38 -58 -10 -73 23 -12 50 -2 92 37 l27 25 31 -36 c18 -20 37 -36 43 -36 6 0 23 12 38 26 l27 26 -26 31 c-15 16 -32 35 -38 41 -8 8 -2 22 22 52 39 47 41 55 16 77 -27 25 -50 21 -83 -14 l-29 -31 -39 31 c-45 36 -49 36 -79 15z"/><path d="M4559 6493 c-8 -23 -6 -30 21 -58 16 -17 30 -36 30 -43 0 -6 -13 -26 -29 -45 -31 -35 -34 -54 -12 -81 19 -23 29 -20 73 20 l39 35 40 -35 c46 -42 58 -44 88 -12 l23 24 -38 41 c-34 38 -36 44 -24 66 7 13 23 34 36 46 21 20 22 23 7 45 -22 34 -50 30 -89 -13 l-34 -37 -38 37 c-46 45 -78 48 -93 10z"/><path d="M4440 6195 c-23 -19 -45 -35 -48 -35 -4 0 -21 14 -39 30 -18 17 -41 30 -51 30 -22 0 -59 -49 -45 -59 4 -3 20 -21 35 -39 l27 -33 -36 -50 c-34 -48 -35 -50 -18 -69 25 -28 39 -25 85 16 l40 36 40 -36 c42 -37 67 -45 88 -24 20 20 14 42 -25 87 -20 24 -32 46 -27 50 5 3 24 23 42 43 33 35 34 36 17 62 -23 34 -35 33 -85 -9z"/><path d="M4595 6223 c-12 -2 -26 -13 -33 -24 -11 -17 -8 -25 23 -63 l35 -44 -35 -42 c-37 -45 -44 -70 -21 -89 18 -15 54 -1 90 37 l29 31 41 -39 c43 -41 68 -45 94 -12 17 22 17 22 -23 66 -19 22 -35 45 -35 51 0 6 16 26 35 45 37 36 35 58 -6 81 -18 9 -27 6 -60 -27 l-39 -38 -37 35 c-24 22 -46 34 -58 32z"/><path d="M4570 5920 c-26 -26 -25 -38 10 -80 17 -19 30 -37 30 -41 0 -4 -16 -26 -35 -49 l-36 -43 22 -23 c13 -13 26 -24 31 -24 4 0 26 16 48 36 l40 36 46 -37 c36 -30 50 -36 63 -28 27 17 25 61 -3 98 -14 18 -26 38 -26 42 0 5 15 24 34 42 l33 32 15 -23 c9 -13 25 -33 36 -44 l21 -22 -21 -18 c-11 -11 -29 -31 -39 -46 -20 -27 -20 -27 1 -48 18 -18 23 -19 48 -6 15 8 36 23 46 35 24 26 42 27 56 1 14 -26 64 -52 85 -44 8 4 20 15 25 25 8 15 3 26 -25 57 -19 22 -35 43 -35 48 0 4 16 25 36 45 l36 37 -23 31 c-12 17 -26 31 -31 31 -4 0 -25 -16 -47 -35 -21 -19 -42 -35 -46 -35 -4 0 -24 14 -46 31 -32 25 -42 28 -59 19 -11 -6 -20 -16 -20 -22 0 -7 -13 0 -28 15 -15 15 -33 27 -40 27 -6 0 -27 -17 -47 -37 l-35 -37 -33 31 c-44 41 -63 47 -87 23z"/><path d="M4849 5629 c-16 -30 -10 -53 22 -92 l32 -38 -25 -27 c-47 -52 -50 -59 -38 -81 15 -30 52 -26 85 9 16 17 33 30 38 30 5 0 28 -16 50 -36 l39 -36 31 31 31 31 -25 27 c-54 60 -54 59 -20 100 34 41 37 59 17 86 -19 25 -36 21 -77 -19 l-37 -36 -38 35 c-43 38 -70 43 -85 16z"/><path d="M5153 5338 c-24 -31 -22 -49 7 -82 17 -18 30 -38 30 -43 0 -5 -17 -29 -37 -53 l-37 -43 28 -23 c31 -27 44 -24 90 25 l30 31 43 -42 43 -42 32 32 32 32 -25 27 c-55 61 -55 60 -20 103 36 45 37 51 13 73 -27 25 -42 21 -82 -18 l-35 -34 -38 34 c-41 37 -59 43 -74 23z"/></g></svg>